<?xml version="1.0" encoding="UTF-8"?>
<svg id="_レイヤー_2" data-name="レイヤー 2" xmlns="http://www.w3.org/2000/svg" viewBox="0 0 457.08 170.08">
  <defs>
    <style>
      .cls-1 {
        fill: #91c97f;
      }

      .cls-2 {
        fill: #f6ab00;
      }

      .cls-3 {
        fill: #fff;
      }

      .cls-4 {
        fill: #ea5514;
      }

      .cls-5 {
        fill: #95c11c;
      }

      .cls-6 {
        fill: #f08300;
      }

      .cls-7 {
        fill: #00a87c;
      }

      .cls-8 {
        fill: #c93a1c;
      }

      .cls-9 {
        fill: #231815;
      }

      .cls-10 {
        fill: #715621;
      }

      .cls-11 {
        fill: #c98310;
      }

      .cls-12 {
        fill: #f39800;
      }
    </style>
  </defs>
  <g id="logo">
    <g>
      <path class="cls-10" d="M419.14,87.87c.61,2.34,2.31,3.15,3.77,2.51,16.43-7.23,31.46-21.19,34.16-39.14-.16,1.04-1.36,2.45-1.93,3.32-.77,1.18-1.61,2.32-2.5,3.41-1.74,2.13-3.7,4.07-5.8,5.85-6.07,5.14-13.21,8.87-20.54,11.87-.58.24-4.4,1.7-7.06,2.42-1.37.37-2.19,1.77-1.83,3.14l1.72,6.62Z"/>
      <rect class="cls-10" x="419.42" y="41.54" width="8.91" height="22.25" rx="2.81" ry="2.81" transform="translate(163.57 391.32) rotate(-59.54)"/>
      <path class="cls-10" d="M298.94,77.14l-7.39-7.33c3.19-6.53,5.31-14.94,5.66-26.56.06-1.86-1.43-3.42-3.29-3.42h-3.05c-1.76,0-3.22,1.4-3.28,3.16-.26,8.08-1.55,14.24-3.56,19.35l-8.47-8.4c-1.29-1.28-3.37-1.27-4.65.02l-1.2,1.21c-1.28,1.29-1.27,3.37.02,4.65l10.3,10.22-.37.61c-9.52,13.45-24.94,14.11-32.71,13.13,9.41,5.91,28,8.09,39.71-6.13l.43-.6,6.02,5.97c1.29,1.28,3.37,1.27,4.65-.02l1.2-1.21c1.28-1.29,1.27-3.37-.02-4.65Z"/>
      <g>
        <path class="cls-10" d="M373.24,64.05l-4.74.1c-1.4.03-2.52,1.15-2.59,2.55-.57,12.36-5.5,17.19-13.61,15.65,5.67,5.99,22.34,6.73,23.64-15.53.09-1.53-1.17-2.81-2.71-2.78Z"/>
        <path class="cls-10" d="M400.92,49.12h-10.38v-10.27c0-1.47-1.19-2.66-2.66-2.66h-2.97c-1.47,0-2.66,1.19-2.66,2.66v10.27h-22.7c-1.47,0-2.66,1.19-2.66,2.66v3.43c0,1.47,1.19,2.66,2.66,2.66h22.7v30.78c0,1.47,1.19,2.66,2.66,2.66h2.97c1.47,0,2.66-1.19,2.66-2.66v-30.78h10.38c1.47,0,2.66-1.19,2.66-2.66v-3.43c0-1.47-1.19-2.66-2.66-2.66Z"/>
      </g>
      <path class="cls-10" d="M238.99,50.72c0-1.74-1.42-3.14-3.15-3.14h-20.45l.17-7.1c.04-1.77-1.38-3.23-3.15-3.23h-3.31c-1.75,0-3.16,1.42-3.15,3.17.01,2.06.04,4.53.06,7.16h-10.7c-1.74,0-3.15,1.41-3.15,3.15v1.64c0,1.74,1.41,3.15,3.15,3.15h10.77c.05,6.03.09,11.43.05,12.97-.08,2.96-.13,6.87-1.74,9.46-2.58,4.17-9.29,4.14-12.43.77-1.7-1.83-2.56-4.74-1.6-7.37.98-2.87,4.19-5.24,7.26-3.13-2.4-4.17-8.31-2.19-10.6,1.19-1.35,1.79-2.04,4.09-2.02,6.37-.06,10.29,12.35,15.93,20.86,11.15,7.18-3.77,8.91-12.25,9.05-19.44l.28-11.98h15.88l.15,33.32c0,1.85,1.51,3.34,3.36,3.33h1.26c1.85-.01,3.34-1.52,3.33-3.36l-.17-38.08Z"/>
      <path class="cls-10" d="M346.13,56.03c-.34-.44-.72-.85-1.17-1.23-6.66-5.76-19.45,1.63-16.9,10.15,1.22,4.07,9.18,5.66,10.33.65.06-.31-.36-.52-.57-.27-1.44,1.51-3.36,1.17-4.14-.31-.49-1.27.08-2.9.82-3.81,1.35-1.66,3.86-2.58,5.9-1.73,2.9,1.2,2.7,4.99,1.95,7.5-1.4,4.65-4.93,8.31-9.25,10.4-2.18,1.06-4.56,1.74-6.97,2.01-.52.06-5.93.45-5.93.34,0,0,0-38.19,0-38.19,0-1.57-1.27-2.84-2.84-2.84h-2.95c-1.57,0-2.84,1.27-2.84,2.84v45.11c0,1.67,1.44,2.98,3.1,2.83l5.53-.51c8.08-.74,16.13-1.23,22.63-6.83,7.12-6.14,9.56-17.99,3.31-26.11Z"/>
      <g>
        <path class="cls-10" d="M204.45,121.43c-3.34-1.2-6.97-.01-9.65,1.38v-10.39c0-1.67-1.36-3.03-3.03-3.03h-1.37c-1.67,0-3.03,1.36-3.03,3.03v39.49c0,1.67,1.36,3.03,3.03,3.03h1.37c1.67,0,3.03-1.36,3.03-3.03v-.46s0,0,0,0c3.75-3.03,8.91-7.67,11.94-12.38,5.14-8,4.16-15.35-2.28-17.63ZM194.8,125.67s-.37.55-.37.55c2.48-1.58,5.83-2.81,8.35-.48,4.71,4.42-2.22,13.6-7.98,18.26v-18.34Z"/>
        <path class="cls-10" d="M244.74,151.1c-4.27-1.08-8.42-5.69-8.64-9.55v-13.2c0-1.9-1.54-3.44-3.44-3.44h-.55c-1.9,0-3.44,1.54-3.44,3.44v13.23c-1.24,5.04-4.23,10.38-9.88,11.69-2.06.57-4.24.98-6.73.81,3.87,3.82,10.16,4.64,15.32,1.91,2.04-1.31,3.74-2.91,5.08-4.75,2.62,3.35,6.36,6.01,10.46,7.05,1.24.32,2.46.47,3.68.47.55,0,1.09-.03,1.64-.1,2.23-.26,3.6-2.57,2.8-4.67l-.2-.52c-.55-1.43-1.98-2.35-3.5-2.18-.87.09-1.7.02-2.59-.21Z"/>
        <path class="cls-10" d="M250.35,109.52h0c-.18-1.91-1.78-3.37-3.7-3.37h-21.28c-2.64-4.05-7.93-5.27-11.71-3.34-5.06,2.53-4.49,8.57-4.49,8.57,0,2.98,2.54,5.2,5.5,4.86,2.2-.25,4.02-2.07,4.27-4.28.33-2.95-1.89-5.48-4.87-5.48-1.47,0-2.78.74-3.67,1.8.41-1.63,1.39-3.51,3.51-4.41,4.16-1.8,8,1.71,8.41,8.49.9,15.68-7.43,19.59-7.43,19.59,0,0,11.99-3.62,12.15-18.39h15.51c-.03.71-.34,1.46-.88,2.06-.95,1.07-1.16,2.61-.37,3.81l.54.81c1.01,1.53,3.14,1.86,4.53.67,3.62-3.14,4.27-8.36,3.99-11.42Z"/>
      </g>
      <g>
        <path class="cls-10" d="M417.53,132.28c-1.61,0-2.93,1.32-2.93,2.93s1.32,2.93,2.93,2.93,2.93-1.32,2.93-2.93-1.32-2.93-2.93-2.93Z"/>
        <path class="cls-10" d="M450.93,101.84h-49.42c-2.09,0-3.78,1.69-3.78,3.78v49.42c0,2.09,1.69,3.78,3.78,3.78h49.42c2.09,0,3.78-1.69,3.78-3.78v-49.42c0-2.09-1.69-3.78-3.78-3.78ZM448.21,148.54c0,2.09-1.69,3.78-3.78,3.78h-36.43c-2.09,0-3.78-1.69-3.78-3.78v-36.43c0-2.09,1.69-3.78,3.78-3.78h36.43c2.09,0,3.78,1.69,3.78,3.78v36.43Z"/>
        <path class="cls-10" d="M435.63,123.48h-2.97v-3.36c0-1.46-1.18-2.64-2.64-2.64h-1.21c-1.46,0-2.64,1.18-2.64,2.64v3.36h-8.92c-1.46,0-2.64,1.18-2.64,2.64v.57c0,1.46,1.18,2.64,2.64,2.64h8.92v7.5l-.47-.05c-1.45-.15-2.75.91-2.9,2.36l-.12,1.2c-.15,1.45.91,2.75,2.36,2.9l4.71.48c1.56.16,2.91-1.06,2.91-2.63v-11.77h2.97c1.46,0,2.64-1.18,2.64-2.64v-.57c0-1.46-1.18-2.64-2.64-2.64Z"/>
      </g>
      <g>
        <path class="cls-10" d="M317.09,130.51l-3.05-.4c-.77-.1-1.48.34-1.82,1.04-.22.46-.57.93-1.12,1.28-1.1.7-2.93.87-4.54.41-1.55-.43-2.99-1.41-4.08-2.75-.46-.57-.84-1.19-1.14-1.83h5.32c1.45,0,2.63-1.18,2.63-2.63v-1.37c0-1.45-1.18-2.63-2.63-2.63h-16.87c.31-1.02.55-2.05.77-3.07h17.23c.83,0,1.51-.67,1.51-1.51v-.97c0-.83-.67-1.51-1.51-1.51h-16.6c.12-1.02.21-2.04.29-3.07h15.18c1.45,0,2.63-1.18,2.63-2.63v-1.37c0-1.45-1.18-2.63-2.63-2.63h-14.95c0-.57,0-1.14,0-1.71,0-1.89-1.54-3.42-3.44-3.42h-.96c-1.94,0-3.5,1.61-3.44,3.55.02.53.04,1.06.05,1.59h-13.45c-1.45,0-2.63,1.18-2.63,2.63v1.37c0,1.45,1.18,2.63,2.63,2.63h13.46c-.06,1.04-.15,2.06-.31,3.07h-14.28c-.83,0-1.51.67-1.51,1.51v.97c0,.83.67,1.51,1.51,1.51h13.34c-.35,1.06-.77,2.08-1.26,3.07h-10.95c-1.45,0-2.63,1.18-2.63,2.63v1.37c0,1.45,1.18,2.63,2.63,2.63h6.42c-1.89,2.07-4.13,3.86-6.76,4.85-2.04.76-4.27.86-6.35.21-1.89-.59-3.73-1.67-5.24-3.44.29,2.32,1.77,4.56,3.77,6.11,6.44,5.16,16.23,2.23,21.15-3.72,1.06-1.29,2.1-2.61,3.04-4h7.87c.5,2.15,1.5,4.22,2.96,6.01,1.94,2.4,4.59,4.16,7.45,4.96,1.18.33,2.41.49,3.62.49,2.29,0,4.53-.58,6.28-1.7,1.84-1.17,3.22-2.94,3.96-5.02.4-1.13-.35-2.34-1.54-2.5Z"/>
        <path class="cls-10" d="M305.64,156.3c-.49-.88-1.51-1.34-2.49-1.09-3.06.76-6.61-.69-8.66-2.87-.66-.71-1.23-1.52-1.73-2.42h6.36c1.25,0,2.26-1.01,2.26-2.26v-1.09c0-1.25-1.01-2.26-2.26-2.26h-8.21v-4.54c.88-.65,1.68-1.43,2.33-2.36.96-1.37.4-3.29-1.14-3.94l-.55-.23c-1.11-.47-2.38-.12-3.11.83-1.44,1.86-3.7,3.16-6.04,3.46-1.19.16-2.13,1.08-2.28,2.27v.06c-.23,1.76,1.3,3.22,3.05,2.93.58-.09,1.22-.23,1.87-.39v1.92h-7.56c-1.25,0-2.26,1.01-2.26,2.26v1.09c0,1.25,1.01,2.26,2.26,2.26h6.24c-.28.62-.58,1.22-.93,1.78-1.23,1.7-2.96,2.94-4.85,3.91-2.03.99-4.31,1.66-7.24,1.41,4.36,5.16,13.1,3.05,16.71-2.14.33-.55.61-1.1.86-1.66.64,1.06,1.37,2.04,2.19,2.91,2.92,3.12,7.03,4.81,10.97,4.81,1.15,0,2.3-.15,3.39-.44,1.4-.38,2.04-2.01,1.34-3.27l-.51-.92Z"/>
      </g>
      <g>
        <path class="cls-10" d="M375.03,152.83c-.6-1.03-1.8-1.56-2.96-1.29-1.41.33-2.88.15-4.22-.52-1.61-.81-3.03-2.35-4-4.27h6.96c1.51,0,2.73-1.22,2.73-2.73v-1.25c0-1.51-1.22-2.73-2.73-2.73h-12.42v-2.11h3.49c2.81,0,5.09-2.28,5.09-5.09v-18.53c0-2.81-2.28-5.09-5.09-5.09h-13.69c-2.81,0-5.09,2.28-5.09,5.09v18.53c0,2.81,2.28,5.09,5.09,5.09h3.49v2.11h-12.42c-1.51,0-2.73,1.22-2.73,2.73v1.25c0,1.51,1.22,2.73,2.73,2.73h6.3c-.45,2.21-1.54,4.09-3.23,5.5-2.35,1.97-5.77,2.91-8.72,2.4l-1.94-.34,1.35,1.42c1.32,1.39,4.1,2.34,7.18,2.34,1.72,0,3.54-.3,5.24-.98,1.88-.75,4.58-2.39,6.22-5.84v7.25c0,1.51,1.22,2.73,2.73,2.73h1.25c1.51,0,2.73-1.22,2.73-2.73v-7.44c1.61,2.67,3.8,4.81,6.37,6.1,1.87.94,3.89,1.41,5.92,1.41,1.2,0,2.39-.16,3.55-.49,1.68-.47,2.42-2.47,1.55-3.98l-.74-1.28ZM352.17,115.93h5.72c1.3,0,2.36,1.06,2.36,2.36v2.24c-3.32,1.28-7.09,1.33-10.44.15v-2.38c0-1.3,1.06-2.36,2.36-2.36ZM349.81,128.85v-2.43c1.64.41,3.34.62,5.03.62,1.83,0,3.65-.26,5.41-.74v2.54c0,1.3-1.06,2.36-2.36,2.36h-5.72c-1.3,0-2.36-1.06-2.36-2.36Z"/>
        <path class="cls-10" d="M338.52,119.27c-4.44-2.68-7.32-6.83-8.3-10.83l-7.64,5.65c4.91,3.95,10.76,5.57,15.93,5.17Z"/>
        <path class="cls-10" d="M355.03,107.58c2.17,0,3.93-1.76,3.93-3.93s-1.76-3.93-3.93-3.93-3.93,1.76-3.93,3.93,1.76,3.93,3.93,3.93Z"/>
        <path class="cls-10" d="M384.4,111.67c0-1.93-1.57-3.51-3.51-3.51s-3.51,1.57-3.51,3.51c0,1.46.9,2.77,2.19,3.28-1.4,2.02-4,2.85-6.1,3.53-.41.13-.8.26-1.15.38l-1.87.67h1.99c4.67,0,8.06-1.1,10.09-3.25,2.01-2.14,1.88-4.53,1.88-4.6Z"/>
        <path class="cls-10" d="M329.69,133.66c1.35-1.92,3.82-2.71,5.83-3.36.4-.13.77-.25,1.1-.37l1.87-.67h-1.99c-4.5,0-7.76,1.05-9.7,3.12-1.9,2.03-1.78,4.27-1.78,4.35,0,1.86,1.51,3.38,3.37,3.38s3.38-1.51,3.38-3.38c0-1.36-.85-2.58-2.09-3.07Z"/>
        <path class="cls-10" d="M388.24,136.34s-7.1-8.69-17.04-7.84c0,0,4.18,1.21,6.27,6.44,0,0,1.59,3.06,1.39,5.8l9.37-4.39Z"/>
      </g>
      <g>
        <path class="cls-8" d="M73.5,42.88c-1,1.65-.43,4.08,1.21,5.11,1.64,1.02,4.08.47,5.12-1.15.83-1.29.83-3.12,0-4.76-1.09-2.15-3.35-3.62-5.77-3.74-1.98-.09-4,.76-5.4,2.27-1.03,1.12-1.61,2.46-1.73,3.97-.3,3.76,2.28,7.76,4.57,10.05,1.05,1.05,2.26,2,3.6,2.83.85.53,1.74.93,2.61,1.32.46.21.92.41,1.37.63,0,0,0,0,.01,0,.04.02.08.03.12.03.1,0,.2-.06.25-.16.07-.14.01-.31-.13-.37-4.27-2.11-7.38-7.05-8.12-12.9-.14-1.08-.24-2.49.18-3.76.42-1.27,1.28-2.25,2.36-2.49,1.48-.33,2.78.43,3.78,1.43-1.51-.3-3.23.35-4.03,1.67Z"/>
        <path class="cls-11" d="M159.02,66.4l-11.9.17c-1.7.02-2.74,1.88-1.87,3.34l6.1,10.22c.87,1.46,3,1.43,3.83-.05l5.8-10.39c.83-1.49-.26-3.31-1.96-3.29Z"/>
        <path class="cls-11" d="M168.31,84.07l-11.46-3.2c-1.64-.46-3.16,1.03-2.74,2.68l2.96,11.53c.42,1.65,2.47,2.22,3.69,1.03l8.51-8.32c1.22-1.19.69-3.25-.95-3.71Z"/>
        <path class="cls-11" d="M171.19,103.83l-10.31-5.95c-1.47-.85-3.32.21-3.32,1.91v11.9c0,1.7,1.84,2.77,3.32,1.91l10.31-5.95c1.47-.85,1.47-2.98,0-3.83Z"/>
        <path class="cls-11" d="M168.39,122.64l-9.11-7.65c-1.3-1.09-3.3-.37-3.6,1.31l-2.07,11.72c-.3,1.68,1.33,3.04,2.93,2.46l11.18-4.07c1.6-.58,1.97-2.68.67-3.77Z"/>
        <path class="cls-11" d="M161.73,141.72l-6.47-9.99c-.93-1.43-3.05-1.32-3.82.2l-5.42,10.6c-.77,1.52.38,3.3,2.08,3.21l11.89-.61c1.7-.09,2.67-1.98,1.74-3.41Z"/>
        <path class="cls-11" d="M150.71,159.03l-3.54-11.36c-.51-1.62-2.58-2.09-3.74-.84l-8.07,8.74c-1.15,1.25-.52,3.28,1.14,3.66l11.61,2.62c1.66.37,3.1-1.19,2.6-2.81Z"/>
        <path class="cls-10" d="M52.35,99.81c-.24.06-.48.11-.72.16,1.58-7.24,2.08-14.74,2.12-21.96.05-9.61-.77-19.02-1.4-28.45,2.79-1.73,5.45-3.67,7.95-5.86,9.18-8.13,20.81-24.07,13.31-36.53-1.12-1.87-2.85-3.46-4.68-4.62-1.84-1.17-3.91-1.95-6.05-2.32-2.65-.45-5.43-.22-7.99.59-1.86.59-3.63,1.47-5.2,2.64-1.48,1.1-2.77,2.43-3.86,3.92-1.09,1.5-1.96,3.15-2.65,4.86-.71,1.77-1.23,3.61-1.59,5.47-.37,1.89-.58,3.82-.66,5.75-.04.88-.05,1.76-.03,2.64.09,6.53.72,13.05,1.51,19.57-5.55,3.22-11.28,6-16.3,10.3-6.57,5.34-11.09,13.03-10.19,21.84,1.44,13.66,14.99,24.8,28.55,25.36-2.48,12.09-10.43,22.77-21.52,28.24-3.6,1.76-7.67,2.64-11.45,1.69-4.95-1.08-9.62-5.5-9.36-10.6.38,1.27,1.15,2.44,2.32,3.27,2.77,1.95,6.6,1.29,8.56-1.48,1.33-1.89,1.42-4.26.48-6.2-.23-.62-.57-1.2-1.03-1.69-3.64-3.87-10.25-1.39-11.74,3.29-2.86,7.16,3.16,14.5,9.94,16.38,12.78,3.81,28.09-8.42,34.33-18.79,2.76-4.58,4.68-9.56,6.02-14.71.67-.16,1.35-.33,2.01-.55,11.24-3.63,19.2-16.29,15.62-27.86,2.71,11.23-5.41,22.91-16.29,25.65ZM45.01,100.35c-11.89-1.17-23.63-11.65-23.65-23.53.03-12.13,12.3-18.06,22.16-22.61,2.06,15.43,4.16,30.82,1.5,46.14ZM60.48,7.66c13.65,2.32-.54,27.57-9.04,32.65,0,0-5.48-35.11,9.04-32.65Z"/>
        <path class="cls-12" d="M108.71,19.28c-.76-.2-1.61-.49-2.07-.88-.98-.83-1.58-2.13-1.44-3.4.24-2.17-.65-4.43-2.29-5.87-1.33-1.16-3.17-1.43-4.86-1.62-.21-.02-1.54-.2-2.59-.37-.73-.12-1.41.36-1.56,1.08-.76,3.63-1.59,7.35-2.28,10.21-1.37-.93-3.16-1.18-4.81-.51-2.63,1.06-3.91,4.06-2.85,6.69,1.06,2.63,4.06,3.91,6.69,2.85,1.76-.71,2.91-2.29,3.16-4.04.55-1.72,1.36-4.83,2.61-10.62,1.59.16,2.92.86,3.19,2.29.14.74.05,1.51.15,2.26.29,2.23,2.49,4.04,4.73,3.91,1.74-.11,2.82-.97,4.22-1.41.28-.09.26-.49-.03-.56Z"/>
        <path class="cls-12" d="M44.8,152.29c-.6-.48-1.67-.88-2.61-1.03-.33-.05-.52.32-.32.58,1.17,1.48,1.11,3.69.44,5.55-.56,1.55-1.85,2.72-3.42,3.21-.05.02-.08.02-.11.03-1.76-3.23-3.43-6.36-4.69-8.83,1.37-.19,2.67-.92,3.51-2.15,1.6-2.33,1.01-5.52-1.32-7.12s-5.52-1.01-7.12,1.32c-1.29,1.88-.94,4.16.2,6.03,1.15,2.58,3.55,7.27,8.46,16.11.37.67,1.22.9,1.88.52.82-.48,1.75-1.03,1.74-1.04,2.2-1.35,4.32-2.6,5.17-5.21.77-2.4.33-6.24-1.81-7.96Z"/>
        <g>
          <path class="cls-5" d="M122.07,139.52c-.07-.04-.14-.08-.21-.13,1.46,3.02.89,7.34-1.24,9.93-2.13,2.59-5.66,3.9-8.99,3.51-3.33-.39-6.4-2.39-8.28-5.17,0,0-1.83,10.43-9.72,10.03-3.17-.16-5.43-1.21-7.06-2.66-.39,2.22-.76,4.44-1.08,6.67-.21,1.47-.39,2.95-.47,4.43,12.06,4.76,25.17,5.49,36.74.58,10.42-4.42,19.09-11.93,25.56-21.11-4.83-1.82-9.53-3.97-14.08-6.39-3.3,2.06-7.79,2.3-11.16.29Z"/>
          <path class="cls-6" d="M156.89,85.27c-3.42,3.06-7.32,5.6-11.43,7.85-.07,4.29-3.25,8.45-7.47,9.43,4.24,1.75,6.68,6.79,5.84,11.3-.84,4.51-4.61,8.21-9.03,9.44,3.6,3.63,4.07,9.8.87,13.78-.69.86-1.52,1.57-2.45,2.15,4.55,2.42,9.26,4.57,14.08,6.39,12.15-17.25,16.45-40.44,9.58-60.34Z"/>
          <path class="cls-7" d="M86.57,155.04c-2.43-2.15-3.45-5.18-3.84-7.46,0,0-3.94,4.86-9.46,4.73-5.52-.13-8.72-5-9.29-9.86-2.4,1.04-5.39,1.21-8.1.66,7.3,10.41,17.75,18.53,29.15,23.03.08-1.48.27-2.97.47-4.43.32-2.23.69-4.45,1.08-6.67Z"/>
          <path class="cls-1" d="M85.01,166.14c.08-1.48.27-2.97.47-4.43-.21,1.47-.39,2.95-.47,4.43Z"/>
          <path class="cls-4" d="M138.46,70.07c2.05,4.5.47,10.23-3.31,13.42,4.8-.33,9.52,3.46,10.23,8.22.07.47.09.95.08,1.42,4.11-2.25,8.01-4.79,11.43-7.85-.74-2.15-1.6-4.26-2.61-6.33-3-6.15-7.4-11.28-11.56-16.65-.1-.13-1.39-1.63-2.81-3.07-2.04,1.62-4.59,3.52-7.57,5.53,2.63.85,4.96,2.77,6.12,5.3Z"/>
        </g>
        <path class="cls-2" d="M99.73,125.17s.08-.04.12-.06c6.15-3.04,12.81-9.14,12.99-16.48.02-1.04-.07-2.04-.25-3.02l-.26-.2c-6.63.31-13.08-2.55-18.65-5.93-1.37-.83-2.71-1.72-4-2.67-1.22-.89-1.94-2.17-3.57-1.87-1.36.26-3.46.84-4.79.44s-1.9-2-1.21-3.19c.63-1.08,2.17-1.15,3.15-1.9.13-.1.1-.31-.04-.39-.67-.41-1.2-.74-1.89-1.22-.79-.55-1.4-1.57-1.05-2.46.34-.85,1.35-1.18,2.26-1.29.82-.1,1.39-.07,2.02-.5.11-.07.14-.23.07-.34-.49-.78-1.21-1.41-1.65-2.22-.48-.88-.5-2.17.34-2.7.66-.41,1.52-.18,2.2.19,3.08,1.65,4.39,5.43,7.14,7.59.85.67,1.82,1.16,2.82,1.57,2.52,1.03,3.55-.12,6.26-.48.42-.06.84-.14,1.26-.24.15-.04.22-.2.16-.34-.53-1.14-.98-2.31-1.29-3.52-.05-.19-.18-1.12-.32-2.37-.13-.03-.26-.04-.4-.07-4.88-1.23-7.01-6.01-10-9.56-3.21-3.82-7.61-6.41-10.95-10.1-2.98-3.29-2.72-8.72.61-12.35,6.48-7.05,14.31-14.1,23.52-16.63,2.79-.77,5.64-1.06,8.46-.85,3.67.27,7.03,1.74,10.65,2.25,3.74.52,7.58.07,11.37-.08,7.04-.28,15.01,1.37,14.04,9.56-.93,7.87-6.17,14.1-12.23,18.89-.99.78-2.01,1.52-3.05,2.23-.15.11-.13.33.04.41,2.09.99,3.88,2.68,4.84,4.79,1.96,4.3.6,9.73-2.83,12.98-.16.15-.06.41.17.41,4.56.03,8.9,3.7,9.58,8.24.07.47.09.95.08,1.42-.07,4.07-2.93,8.03-6.83,9.25-.21.07-.24.35-.04.45,3.87,1.96,6.04,6.74,5.24,11.03-.82,4.39-4.4,8.01-8.66,9.33-.17.05-.22.25-.1.38,3.36,3.66,3.72,9.62.61,13.51-.69.86-1.52,1.57-2.45,2.15-3.3,2.06-7.79,2.3-11.16.29-.07-.04-.14-.08-.21-.13,1.46,3.02.89,7.34-1.24,9.93-2.13,2.59-5.66,3.9-8.99,3.51-3.15-.37-6.07-2.18-7.96-4.73-.12-.17-.38-.12-.42.08-.49,2.1-2.79,9.85-9.61,9.51-3.17-.16-5.43-1.21-7.06-2.66-2.27-2.01-3.3-4.77-3.75-6.98-.04-.19-.28-.26-.41-.12-1.04,1.13-4.55,4.48-9.14,4.37-5.41-.13-8.59-4.8-9.25-9.56-.02-.15-.17-.24-.32-.18-2.32.92-5.15,1.07-7.73.57-.06-.01-.12-.05-.16-.1-.97-1.39-1.89-2.82-2.75-4.3-1.55-2.66-2.51-5.58-3.03-8.61-.45-2.61-.57-5.3-.42-7.99.05-.88.13-1.75.23-2.62.62-5.45,2.21-10.79,4.75-15.66,1.27-2.43,2.77-4.74,4.49-6.87,1.72-2.13,3.85-3.88,5.18-6.32,2.13-3.91,2.6-8.89.64-13.01-2.08-4.39-6.79-7.18-11.52-7.75-5.09-.62-9.56,1.34-13.31,4.64-2.07,1.82-3.28,4.14-3.64,6.59-.03.17.14.31.31.27,1.07-.27,2.25-.09,3.22.6,2.99,2.11,1.61,6.9-2.02,7.16-2.7.19-5.13-2.27-6.4-4.41-1.57-2.67-1.78-6.19-1.23-9.16,2.27-12.45,15.31-18.51,26.97-16.17,2.29.46,4.53,1.23,6.61,2.3,7.19,3.71,12.69,10.97,12.04,19.35-.71,9.1-10,15.67-9.3,24.74.64,8.31,5.18,16.58,12.88,20.26,6.39,3.05,14.01,2.17,20.23-.86Z"/>
        <circle class="cls-3" cx="109.6" cy="52" r="7.8"/>
        <circle class="cls-9" cx="112.07" cy="52.02" r="4.66"/>
        <path class="cls-3" d="M109.75,50.73c-.59-.51-.28-1.81.52-2.19s1.68.37,1.48,1.25-1.39,1.44-1.99.94"/>
      </g>
    </g>
  </g>
</svg>