<?xml version="1.0" encoding="UTF-8"?>
<svg id="_レイヤー_2" data-name="レイヤー 2" xmlns="http://www.w3.org/2000/svg" viewBox="0 0 203.53 200.91">
  <defs>
    <style>
      .cls-1 {
        fill: #91c97f;
      }

      .cls-2 {
        fill: #f6ab00;
      }

      .cls-3 {
        fill: #fff;
      }

      .cls-4 {
        fill: #ea5514;
      }

      .cls-5 {
        fill: #95c11c;
      }

      .cls-6 {
        fill: #5c451f;
      }

      .cls-7 {
        fill: #f08300;
      }

      .cls-8 {
        fill: #00a87c;
      }

      .cls-9 {
        fill: #c93a1c;
      }

      .cls-10 {
        fill: #231815;
      }

      .cls-11 {
        fill: #c98310;
      }

      .cls-12 {
        fill: #f39800;
      }
    </style>
  </defs>
  <g id="logo">
    <g>
      <g>
        <g>
          <path class="cls-9" d="M86.83,50.66c-1.18,1.95-.5,4.82,1.43,6.03,1.93,1.21,4.82.56,6.05-1.36.98-1.53.98-3.68,0-5.63-1.29-2.55-3.96-4.28-6.81-4.41-2.34-.11-4.73.89-6.38,2.68-1.22,1.32-1.91,2.9-2.05,4.69-.35,4.44,2.69,9.17,5.4,11.87,1.24,1.24,2.67,2.37,4.25,3.35,1,.62,2.06,1.1,3.08,1.56.54.24,1.08.48,1.62.75,0,0,0,0,.01,0,.05.02.1.03.15.03.12,0,.24-.07.3-.18.08-.16.01-.36-.15-.44-5.04-2.5-8.72-8.33-9.6-15.24-.16-1.28-.29-2.94.21-4.44.5-1.51,1.51-2.65,2.79-2.94,1.74-.4,3.29.5,4.46,1.69-1.78-.36-3.81.41-4.76,1.98Z"/>
          <path class="cls-11" d="M187.84,78.44l-14.06.2c-2.01.03-3.24,2.22-2.21,3.95l7.2,12.07c1.03,1.73,3.54,1.69,4.52-.06l6.86-12.27c.98-1.76-.31-3.91-2.32-3.88Z"/>
          <path class="cls-11" d="M198.83,99.31l-13.54-3.79c-1.94-.54-3.73,1.22-3.23,3.16l3.49,13.62c.5,1.95,2.92,2.62,4.36,1.22l10.05-9.83c1.44-1.41.81-3.84-1.12-4.38Z"/>
          <path class="cls-11" d="M202.23,122.65l-12.17-7.03c-1.74-1.01-3.92.25-3.92,2.26v14.06c0,2.01,2.18,3.27,3.92,2.26l12.17-7.03c1.74-1.01,1.74-3.52,0-4.52Z"/>
          <path class="cls-11" d="M198.92,144.87l-10.77-9.04c-1.54-1.29-3.9-.43-4.25,1.55l-2.44,13.84c-.35,1.98,1.57,3.6,3.46,2.91l13.21-4.8c1.89-.69,2.33-3.16.79-4.45Z"/>
          <path class="cls-11" d="M191.05,167.41l-7.64-11.8c-1.09-1.69-3.6-1.56-4.52.23l-6.4,12.52c-.91,1.79.45,3.9,2.46,3.8l14.04-.72c2.01-.1,3.15-2.34,2.06-4.03Z"/>
          <path class="cls-11" d="M178.03,187.86l-4.18-13.42c-.6-1.92-3.05-2.47-4.41-.99l-9.53,10.33c-1.36,1.48-.62,3.88,1.34,4.32l13.71,3.09c1.96.44,3.67-1.4,3.07-3.32Z"/>
          <path class="cls-6" d="M61.84,117.9c-.28.08-.57.13-.85.19,1.87-8.55,2.46-17.42,2.5-25.94.06-11.36-.9-22.47-1.65-33.6,3.29-2.04,6.44-4.33,9.4-6.92,10.85-9.61,24.58-28.44,15.72-43.15-1.33-2.21-3.37-4.09-5.53-5.46-2.17-1.38-4.62-2.31-7.15-2.74-3.13-.54-6.41-.26-9.44.7-2.2.7-4.28,1.74-6.14,3.11-1.75,1.29-3.28,2.87-4.56,4.63-1.29,1.77-2.32,3.72-3.13,5.75-.84,2.09-1.45,4.26-1.88,6.47-.43,2.24-.68,4.51-.78,6.79-.04,1.04-.05,2.08-.03,3.12.11,7.72.85,15.42,1.78,23.12-6.56,3.81-13.33,7.09-19.26,12.16-7.76,6.31-13.1,15.39-12.04,25.8,1.7,16.14,17.71,29.3,33.73,29.95-2.93,14.28-12.32,26.89-25.43,33.36-4.25,2.08-9.06,3.12-13.53,2-5.85-1.28-11.37-6.5-11.06-12.52.45,1.51,1.36,2.88,2.74,3.86,3.28,2.31,7.8,1.52,10.11-1.75,1.57-2.23,1.68-5.03.57-7.32-.27-.73-.67-1.41-1.21-1.99-4.3-4.57-12.11-1.65-13.87,3.89-3.38,8.45,3.73,17.13,11.74,19.35,15.09,4.5,33.18-9.94,40.55-22.2,3.26-5.41,5.53-11.29,7.11-17.37.8-.19,1.59-.39,2.37-.65,13.28-4.29,22.68-19.25,18.45-32.91,3.2,13.27-6.39,27.06-19.24,30.3ZM53.17,118.54c-14.05-1.38-27.91-13.76-27.94-27.79.04-14.33,14.53-21.34,26.17-26.71,2.43,18.23,4.91,36.4,1.77,54.5ZM71.45,9.05c16.12,2.74-.64,32.57-10.68,38.57,0,0-6.47-41.48,10.68-38.57Z"/>
          <path class="cls-12" d="M128.41,22.78c-.9-.23-1.9-.57-2.44-1.04-1.15-.98-1.87-2.51-1.7-4.02.28-2.56-.76-5.24-2.7-6.94-1.57-1.38-3.74-1.69-5.74-1.91-.24-.03-1.82-.24-3.06-.44-.86-.14-1.67.42-1.85,1.27-.9,4.29-1.87,8.68-2.7,12.07-1.62-1.09-3.73-1.39-5.68-.6-3.11,1.25-4.62,4.79-3.36,7.91,1.25,3.11,4.79,4.62,7.91,3.36,2.08-.84,3.44-2.7,3.74-4.77.65-2.03,1.61-5.71,3.09-12.54,1.87.19,3.45,1.01,3.77,2.71.17.88.06,1.78.17,2.67.34,2.64,2.94,4.78,5.59,4.61,2.06-.13,3.33-1.14,4.99-1.67.33-.1.3-.58-.03-.67Z"/>
          <path class="cls-12" d="M52.92,179.89c-.71-.57-1.97-1.04-3.08-1.21-.38-.06-.62.38-.38.69,1.38,1.75,1.32,4.36.52,6.55-.66,1.83-2.19,3.21-4.04,3.79-.06.02-.09.03-.13.04-2.08-3.82-4.05-7.51-5.55-10.44,1.62-.23,3.15-1.09,4.15-2.54,1.89-2.75,1.19-6.52-1.56-8.41s-6.52-1.19-8.41,1.56c-1.53,2.23-1.11,4.91.23,7.12,1.35,3.05,4.19,8.59,10,19.02.44.79,1.44,1.06,2.22.61.96-.56,2.06-1.21,2.05-1.23,2.6-1.59,5.1-3.07,6.1-6.16.91-2.83.39-7.37-2.13-9.4Z"/>
          <g>
            <path class="cls-5" d="M144.19,164.81c-.08-.05-.16-.1-.24-.15,1.73,3.57,1.05,8.67-1.47,11.73s-6.69,4.6-10.62,4.15c-3.94-.46-7.56-2.82-9.78-6.11,0,0-2.16,12.32-11.48,11.85-3.74-.19-6.41-1.43-8.34-3.14-.47,2.62-.9,5.24-1.28,7.88-.25,1.73-.46,3.49-.56,5.24,14.24,5.63,29.73,6.49,43.4.69,12.31-5.23,22.55-14.09,30.19-24.93-5.7-2.15-11.26-4.69-16.64-7.55-3.9,2.44-9.2,2.71-13.18.35Z"/>
            <path class="cls-7" d="M185.33,100.73c-4.04,3.61-8.65,6.62-13.5,9.27-.09,5.07-3.84,9.98-8.82,11.14,5.01,2.06,7.89,8.03,6.89,13.35-.99,5.33-5.44,9.7-10.66,11.15,4.25,4.28,4.8,11.58,1.03,16.28-.81,1.01-1.8,1.85-2.89,2.54,5.38,2.86,10.93,5.4,16.64,7.55,14.36-20.38,19.43-47.77,11.32-71.28Z"/>
            <path class="cls-8" d="M102.26,183.15c-2.88-2.54-4.08-6.12-4.54-8.81,0,0-4.66,5.74-11.18,5.59-6.52-.16-10.3-5.9-10.97-11.65-2.83,1.23-6.37,1.42-9.57.78,8.62,12.3,20.96,21.88,34.43,27.2.1-1.75.31-3.5.56-5.24.37-2.63.81-5.26,1.28-7.88Z"/>
            <path class="cls-1" d="M100.42,196.26c.1-1.75.31-3.5.56-5.24-.25,1.73-.46,3.49-.56,5.24Z"/>
            <path class="cls-4" d="M163.56,82.77c2.43,5.32.56,12.09-3.91,15.85,5.67-.39,11.25,4.09,12.08,9.71.08.56.11,1.12.1,1.68,4.85-2.66,9.47-5.66,13.5-9.27-.88-2.54-1.9-5.04-3.08-7.47-3.54-7.26-8.74-13.32-13.65-19.66-.12-.15-1.64-1.92-3.32-3.63-2.41,1.91-5.43,4.16-8.94,6.54,3.11,1.01,5.86,3.27,7.23,6.26Z"/>
          </g>
          <path class="cls-2" d="M117.81,147.87s.1-.05.14-.07c7.26-3.59,15.14-10.8,15.34-19.47.03-1.23-.09-2.41-.3-3.56l-.31-.24c-7.83.37-15.45-3.02-22.03-7-1.62-.98-3.2-2.03-4.73-3.15-1.45-1.05-2.29-2.57-4.22-2.2-1.61.3-4.09.99-5.66.51s-2.25-2.36-1.43-3.77c.74-1.27,2.56-1.36,3.73-2.25.15-.12.12-.36-.04-.46-.8-.49-1.41-.87-2.23-1.44-.93-.65-1.66-1.85-1.24-2.91.4-1,1.6-1.39,2.67-1.53.97-.12,1.64-.08,2.38-.58.13-.09.16-.27.08-.4-.58-.92-1.43-1.67-1.95-2.63-.57-1.04-.59-2.56.41-3.19.77-.48,1.8-.21,2.6.22,3.64,1.95,5.19,6.42,8.44,8.97,1,.79,2.15,1.37,3.33,1.85,2.98,1.21,4.2-.15,7.39-.56.5-.07,1-.16,1.49-.28.18-.04.27-.24.19-.4-.63-1.35-1.16-2.73-1.53-4.16-.06-.22-.21-1.32-.38-2.8-.16-.03-.31-.05-.47-.09-5.77-1.45-8.28-7.1-11.81-11.29-3.79-4.51-8.99-7.57-12.94-11.93-3.52-3.88-3.22-10.3.72-14.59,7.65-8.32,16.91-16.65,27.78-19.65,3.29-.91,6.67-1.25,9.99-1,4.34.32,8.31,2.06,12.58,2.65,4.42.61,8.95.09,13.43-.09,8.32-.33,17.73,1.62,16.59,11.29-1.1,9.3-7.29,16.66-14.45,22.32-1.17.93-2.38,1.79-3.6,2.64-.18.12-.15.39.04.48,2.47,1.18,4.58,3.16,5.72,5.65,2.32,5.08.71,11.49-3.34,15.34-.19.18-.07.49.2.49,5.39.04,10.51,4.37,11.32,9.73.08.56.11,1.12.1,1.68-.08,4.81-3.46,9.48-8.07,10.93-.25.08-.28.41-.04.53,4.57,2.31,7.13,7.96,6.18,13.03-.97,5.18-5.2,9.46-10.24,11.03-.2.06-.26.3-.12.45,3.96,4.32,4.4,11.37.72,15.96-.81,1.01-1.8,1.85-2.89,2.54-3.9,2.44-9.2,2.71-13.18.35-.08-.05-.16-.1-.24-.15,1.73,3.57,1.05,8.67-1.47,11.73-2.51,3.06-6.68,4.6-10.62,4.15-3.73-.43-7.17-2.57-9.41-5.58-.15-.2-.44-.15-.5.09-.58,2.48-3.29,11.64-11.35,11.24-3.74-.19-6.41-1.43-8.34-3.14-2.68-2.37-3.9-5.63-4.43-8.25-.05-.23-.33-.31-.49-.14-1.23,1.33-5.37,5.29-10.8,5.16-6.39-.15-10.15-5.67-10.93-11.29-.03-.18-.2-.29-.37-.22-2.74,1.09-6.08,1.26-9.13.67-.08-.01-.14-.06-.19-.12-1.15-1.65-2.24-3.34-3.25-5.07-1.83-3.15-2.96-6.59-3.58-10.17-.53-3.09-.68-6.27-.49-9.44.06-1.04.15-2.07.27-3.1.74-6.43,2.61-12.75,5.61-18.49,1.5-2.87,3.27-5.6,5.3-8.12,2.03-2.51,4.55-4.58,6.12-7.46,2.52-4.61,3.07-10.51.76-15.37-2.46-5.19-8.02-8.48-13.6-9.16-6.02-.73-11.29,1.59-15.73,5.48-2.45,2.15-3.87,4.89-4.3,7.78-.03.21.17.36.37.31,1.27-.32,2.66-.11,3.81.7,3.53,2.49,1.91,8.15-2.39,8.46-3.19.23-6.06-2.68-7.56-5.21-1.86-3.15-2.1-7.31-1.46-10.82,2.69-14.71,18.08-21.87,31.85-19.1,2.71.54,5.35,1.45,7.81,2.72,8.49,4.39,15,12.96,14.22,22.85-.84,10.75-11.81,18.52-10.99,29.22.76,9.82,6.12,19.58,15.22,23.93,7.54,3.6,16.55,2.57,23.9-1.02Z"/>
        </g>
        <circle class="cls-3" cx="129.46" cy="61.42" r="9.21"/>
        <circle class="cls-10" cx="132.39" cy="61.45" r="5.5"/>
      </g>
      <path class="cls-3" d="M129.65,59.93c-.7-.6-.34-2.14.61-2.58s1.99.44,1.75,1.48-1.64,1.7-2.35,1.11"/>
    </g>
  </g>
</svg>